<svg width="32" height="32" viewBox="0 0 32 32" fill="none" xmlns="http://www.w3.org/2000/svg">
<g clip-path="url(#clip0_6_2)">
<path d="M24.42 13.206C25.6222 13.206 26.7752 12.7284 27.6253 11.8783C28.4754 11.0282 28.953 9.87523 28.953 8.673C28.953 7.47077 28.4754 6.31779 27.6253 5.46768C26.7752 4.61758 25.6222 4.14 24.42 4.14C23.2178 4.14 22.0648 4.61758 21.2147 5.46768C20.3646 6.31779 19.887 7.47077 19.887 8.673C19.887 9.87523 20.3646 11.0282 21.2147 11.8783C22.0648 12.7284 23.2178 13.206 24.42 13.206V13.206Z" fill="#DCDDDF"/>
<path d="M24.42 13.206C25.6222 13.206 26.7752 12.7284 27.6253 11.8783C28.4754 11.0282 28.953 9.87523 28.953 8.673C28.953 7.47077 28.4754 6.31779 27.6253 5.46768C26.7752 4.61758 25.6222 4.14 24.42 4.14C23.2178 4.14 22.0648 4.61758 21.2147 5.46768C20.3646 6.31779 19.887 7.47077 19.887 8.673C19.887 9.87523 20.3646 11.0282 21.2147 11.8783C22.0648 12.7284 23.2178 13.206 24.42 13.206V13.206Z" fill="url(#paint0_linear_6_2)"/>
<path d="M24.42 13.206C25.6222 13.206 26.7752 12.7284 27.6253 11.8783C28.4754 11.0282 28.953 9.87523 28.953 8.673C28.953 7.47077 28.4754 6.31779 27.6253 5.46768C26.7752 4.61758 25.6222 4.14 24.42 4.14C23.2178 4.14 22.0648 4.61758 21.2147 5.46768C20.3646 6.31779 19.887 7.47077 19.887 8.673C19.887 9.87523 20.3646 11.0282 21.2147 11.8783C22.0648 12.7284 23.2178 13.206 24.42 13.206V13.206Z" fill="url(#paint1_linear_6_2)"/>
<path d="M24.42 13.206C25.6222 13.206 26.7752 12.7284 27.6253 11.8783C28.4754 11.0282 28.953 9.87523 28.953 8.673C28.953 7.47077 28.4754 6.31779 27.6253 5.46768C26.7752 4.61758 25.6222 4.14 24.42 4.14C23.2178 4.14 22.0648 4.61758 21.2147 5.46768C20.3646 6.31779 19.887 7.47077 19.887 8.673C19.887 9.87523 20.3646 11.0282 21.2147 11.8783C22.0648 12.7284 23.2178 13.206 24.42 13.206V13.206Z" fill="url(#paint2_radial_6_2)"/>
<path d="M24.42 13.206C25.6222 13.206 26.7752 12.7284 27.6253 11.8783C28.4754 11.0282 28.953 9.87523 28.953 8.673C28.953 7.47077 28.4754 6.31779 27.6253 5.46768C26.7752 4.61758 25.6222 4.14 24.42 4.14C23.2178 4.14 22.0648 4.61758 21.2147 5.46768C20.3646 6.31779 19.887 7.47077 19.887 8.673C19.887 9.87523 20.3646 11.0282 21.2147 11.8783C22.0648 12.7284 23.2178 13.206 24.42 13.206V13.206Z" fill="url(#paint3_radial_6_2)"/>
<path d="M24.42 13.206C25.6222 13.206 26.7752 12.7284 27.6253 11.8783C28.4754 11.0282 28.953 9.87523 28.953 8.673C28.953 7.47077 28.4754 6.31779 27.6253 5.46768C26.7752 4.61758 25.6222 4.14 24.42 4.14C23.2178 4.14 22.0648 4.61758 21.2147 5.46768C20.3646 6.31779 19.887 7.47077 19.887 8.673C19.887 9.87523 20.3646 11.0282 21.2147 11.8783C22.0648 12.7284 23.2178 13.206 24.42 13.206V13.206Z" fill="url(#paint4_radial_6_2)"/>
<path d="M24.42 11.323C25.1069 11.323 25.7657 11.0501 26.2514 10.5644C26.7371 10.0787 27.01 9.41991 27.01 8.733C27.01 8.04609 26.7371 7.38731 26.2514 6.90159C25.7657 6.41587 25.1069 6.143 24.42 6.143C23.7331 6.143 23.0743 6.41587 22.5886 6.90159C22.1029 7.38731 21.83 8.04609 21.83 8.733C21.83 9.41991 22.1029 10.0787 22.5886 10.5644C23.0743 11.0501 23.7331 11.323 24.42 11.323V11.323Z" fill="url(#paint5_linear_6_2)"/>
<path d="M7.58 13.206C6.37777 13.206 5.22479 12.7284 4.37469 11.8783C3.52458 11.0282 3.047 9.87523 3.047 8.673C3.047 7.47077 3.52458 6.31779 4.37469 5.46768C5.22479 4.61758 6.37777 4.14 7.58 4.14C8.78223 4.14 9.93521 4.61758 10.7853 5.46768C11.6354 6.31779 12.113 7.47077 12.113 8.673C12.113 9.87523 11.6354 11.0282 10.7853 11.8783C9.93521 12.7284 8.78223 13.206 7.58 13.206V13.206Z" fill="#DCDDDF"/>
<path d="M7.58 13.206C6.37777 13.206 5.22479 12.7284 4.37469 11.8783C3.52458 11.0282 3.047 9.87523 3.047 8.673C3.047 7.47077 3.52458 6.31779 4.37469 5.46768C5.22479 4.61758 6.37777 4.14 7.58 4.14C8.78223 4.14 9.93521 4.61758 10.7853 5.46768C11.6354 6.31779 12.113 7.47077 12.113 8.673C12.113 9.87523 11.6354 11.0282 10.7853 11.8783C9.93521 12.7284 8.78223 13.206 7.58 13.206V13.206Z" fill="url(#paint6_linear_6_2)"/>
<path d="M7.58 13.206C6.37777 13.206 5.22479 12.7284 4.37469 11.8783C3.52458 11.0282 3.047 9.87523 3.047 8.673C3.047 7.47077 3.52458 6.31779 4.37469 5.46768C5.22479 4.61758 6.37777 4.14 7.58 4.14C8.78223 4.14 9.93521 4.61758 10.7853 5.46768C11.6354 6.31779 12.113 7.47077 12.113 8.673C12.113 9.87523 11.6354 11.0282 10.7853 11.8783C9.93521 12.7284 8.78223 13.206 7.58 13.206V13.206Z" fill="url(#paint7_radial_6_2)"/>
<path d="M7.58 13.206C6.37777 13.206 5.22479 12.7284 4.37469 11.8783C3.52458 11.0282 3.047 9.87523 3.047 8.673C3.047 7.47077 3.52458 6.31779 4.37469 5.46768C5.22479 4.61758 6.37777 4.14 7.58 4.14C8.78223 4.14 9.93521 4.61758 10.7853 5.46768C11.6354 6.31779 12.113 7.47077 12.113 8.673C12.113 9.87523 11.6354 11.0282 10.7853 11.8783C9.93521 12.7284 8.78223 13.206 7.58 13.206V13.206Z" fill="url(#paint8_radial_6_2)"/>
<path d="M7.58 11.323C6.89309 11.323 6.23431 11.0501 5.74859 10.5644C5.26287 10.0787 4.99 9.41991 4.99 8.733C4.99 8.04609 5.26287 7.38731 5.74859 6.90159C6.23431 6.41587 6.89309 6.143 7.58 6.143C8.26691 6.143 8.92569 6.41587 9.4114 6.90159C9.89712 7.38731 10.17 8.04609 10.17 8.733C10.17 9.41991 9.89712 10.0787 9.4114 10.5644C8.92569 11.0501 8.26691 11.323 7.58 11.323V11.323Z" fill="url(#paint9_radial_6_2)"/>
<path d="M7.58 11.323C6.89309 11.323 6.23431 11.0501 5.74859 10.5644C5.26287 10.0787 4.99 9.41991 4.99 8.733C4.99 8.04609 5.26287 7.38731 5.74859 6.90159C6.23431 6.41587 6.89309 6.143 7.58 6.143C8.26691 6.143 8.92569 6.41587 9.4114 6.90159C9.89712 7.38731 10.17 8.04609 10.17 8.733C10.17 9.41991 9.89712 10.0787 9.4114 10.5644C8.92569 11.0501 8.26691 11.323 7.58 11.323V11.323Z" fill="url(#paint10_radial_6_2)"/>
<path d="M30.214 19.54V19.51C30.214 18.974 30.163 18.448 30.061 17.942C29.747 15.887 28.781 12.224 25.836 9.265C21.601 5.017 15.995 5.295 15.995 5.295C15.995 5.295 10.389 5.017 6.154 9.265C3.198 12.224 2.244 15.887 1.929 17.942C1.82593 18.4616 1.77468 18.9902 1.776 19.52V19.55C1.776 22.955 3.797 25.904 6.733 27.313C6.733 27.313 9.901 29.13 15.995 29.13C22.089 29.13 25.258 27.313 25.258 27.313C28.193 25.893 30.214 22.945 30.214 19.54V19.54Z" fill="url(#paint11_radial_6_2)"/>
<path d="M30.214 19.54V19.51C30.214 18.974 30.163 18.448 30.061 17.942C29.747 15.887 28.781 12.224 25.836 9.265C21.601 5.017 15.995 5.295 15.995 5.295C15.995 5.295 10.389 5.017 6.154 9.265C3.198 12.224 2.244 15.887 1.929 17.942C1.82593 18.4616 1.77468 18.9902 1.776 19.52V19.55C1.776 22.955 3.797 25.904 6.733 27.313C6.733 27.313 9.901 29.13 15.995 29.13C22.089 29.13 25.258 27.313 25.258 27.313C28.193 25.893 30.214 22.945 30.214 19.54V19.54Z" fill="url(#paint12_radial_6_2)"/>
<path d="M30.214 19.54V19.51C30.214 18.974 30.163 18.448 30.061 17.942C29.747 15.887 28.781 12.224 25.836 9.265C21.601 5.017 15.995 5.295 15.995 5.295C15.995 5.295 10.389 5.017 6.154 9.265C3.198 12.224 2.244 15.887 1.929 17.942C1.82593 18.4616 1.77468 18.9902 1.776 19.52V19.55C1.776 22.955 3.797 25.904 6.733 27.313C6.733 27.313 9.901 29.13 15.995 29.13C22.089 29.13 25.258 27.313 25.258 27.313C28.193 25.893 30.214 22.945 30.214 19.54V19.54Z" fill="url(#paint13_radial_6_2)"/>
<path d="M30.214 19.54V19.51C30.214 18.974 30.163 18.448 30.061 17.942C29.747 15.887 28.781 12.224 25.836 9.265C21.601 5.017 15.995 5.295 15.995 5.295C15.995 5.295 10.389 5.017 6.154 9.265C3.198 12.224 2.244 15.887 1.929 17.942C1.82593 18.4616 1.77468 18.9902 1.776 19.52V19.55C1.776 22.955 3.797 25.904 6.733 27.313C6.733 27.313 9.901 29.13 15.995 29.13C22.089 29.13 25.258 27.313 25.258 27.313C28.193 25.893 30.214 22.945 30.214 19.54V19.54Z" fill="url(#paint14_radial_6_2)"/>
<path d="M30.214 19.54V19.51C30.214 18.974 30.163 18.448 30.061 17.942C29.747 15.887 28.781 12.224 25.836 9.265C21.601 5.017 15.995 5.295 15.995 5.295C15.995 5.295 10.389 5.017 6.154 9.265C3.198 12.224 2.244 15.887 1.929 17.942C1.82593 18.4616 1.77468 18.9902 1.776 19.52V19.55C1.776 22.955 3.797 25.904 6.733 27.313C6.733 27.313 9.901 29.13 15.995 29.13C22.089 29.13 25.258 27.313 25.258 27.313C28.193 25.893 30.214 22.945 30.214 19.54V19.54Z" fill="url(#paint15_radial_6_2)"/>
<path d="M30.214 19.54V19.51C30.214 18.974 30.163 18.448 30.061 17.942C29.747 15.887 28.781 12.224 25.836 9.265C21.601 5.017 15.995 5.295 15.995 5.295C15.995 5.295 10.389 5.017 6.154 9.265C3.198 12.224 2.244 15.887 1.929 17.942C1.82593 18.4616 1.77468 18.9902 1.776 19.52V19.55C1.776 22.955 3.797 25.904 6.733 27.313C6.733 27.313 9.901 29.13 15.995 29.13C22.089 29.13 25.258 27.313 25.258 27.313C28.193 25.893 30.214 22.945 30.214 19.54V19.54Z" fill="url(#paint16_radial_6_2)"/>
<path d="M30.214 19.54V19.51C30.214 18.974 30.163 18.448 30.061 17.942C29.747 15.887 28.781 12.224 25.836 9.265C21.601 5.017 15.995 5.295 15.995 5.295C15.995 5.295 10.389 5.017 6.154 9.265C3.198 12.224 2.244 15.887 1.929 17.942C1.82593 18.4616 1.77468 18.9902 1.776 19.52V19.55C1.776 22.955 3.797 25.904 6.733 27.313C6.733 27.313 9.901 29.13 15.995 29.13C22.089 29.13 25.258 27.313 25.258 27.313C28.193 25.893 30.214 22.945 30.214 19.54V19.54Z" fill="url(#paint17_radial_6_2)"/>
<g filter="url(#filter0_f_6_2)">
<path d="M11.683 17.493C11.273 17.493 10.933 17.153 10.933 16.743V15.257C10.933 14.847 11.273 14.507 11.683 14.507C12.093 14.507 12.433 14.847 12.433 15.257V16.743C12.433 17.153 12.103 17.493 11.683 17.493Z" fill="#9E9BA4"/>
</g>
<g filter="url(#filter1_f_6_2)">
<path d="M19.682 17.408C19.272 17.408 18.932 17.068 18.932 16.658V15.172C18.932 14.762 19.272 14.422 19.682 14.422C20.092 14.422 20.432 14.762 20.432 15.172V16.658C20.432 17.068 20.102 17.408 19.682 17.408Z" fill="#9E9BA4"/>
</g>
<path d="M11.995 17.096C11.585 17.096 11.245 16.756 11.245 16.346V14.86C11.245 14.45 11.585 14.11 11.995 14.11C12.405 14.11 12.745 14.45 12.745 14.86V16.346C12.745 16.756 12.415 17.096 11.995 17.096Z" fill="url(#paint18_linear_6_2)"/>
<path d="M11.995 17.096C11.585 17.096 11.245 16.756 11.245 16.346V14.86C11.245 14.45 11.585 14.11 11.995 14.11C12.405 14.11 12.745 14.45 12.745 14.86V16.346C12.745 16.756 12.415 17.096 11.995 17.096Z" fill="url(#paint19_linear_6_2)"/>
<path d="M11.995 17.096C11.585 17.096 11.245 16.756 11.245 16.346V14.86C11.245 14.45 11.585 14.11 11.995 14.11C12.405 14.11 12.745 14.45 12.745 14.86V16.346C12.745 16.756 12.415 17.096 11.995 17.096Z" fill="url(#paint20_radial_6_2)"/>
<path d="M19.995 17.096C19.585 17.096 19.245 16.756 19.245 16.346V14.86C19.245 14.45 19.585 14.11 19.995 14.11C20.405 14.11 20.745 14.45 20.745 14.86V16.346C20.745 16.756 20.415 17.096 19.995 17.096Z" fill="url(#paint21_linear_6_2)"/>
<path d="M19.995 17.096C19.585 17.096 19.245 16.756 19.245 16.346V14.86C19.245 14.45 19.585 14.11 19.995 14.11C20.405 14.11 20.745 14.45 20.745 14.86V16.346C20.745 16.756 20.415 17.096 19.995 17.096Z" fill="url(#paint22_linear_6_2)"/>
<path d="M19.995 17.096C19.585 17.096 19.245 16.756 19.245 16.346V14.86C19.245 14.45 19.585 14.11 19.995 14.11C20.405 14.11 20.745 14.45 20.745 14.86V16.346C20.745 16.756 20.415 17.096 19.995 17.096Z" fill="url(#paint23_radial_6_2)"/>
<g filter="url(#filter2_f_6_2)">
<path d="M15.68 18.209C14.6101 18.1743 13.5434 18.3454 12.538 18.713C11.116 19.236 10.454 19.625 10.454 21.937C10.454 27.031 13.362 27.947 15.517 27.219C17.547 26.531 19.735 25.449 20.61 22.625C21.059 21.178 20.173 19.513 18.785 18.905C17.8041 18.4763 16.75 18.2401 15.68 18.209V18.209Z" fill="url(#paint24_linear_6_2)"/>
</g>
<path d="M15.995 17.494C14.8845 17.4918 13.7839 17.703 12.753 18.116C11.295 18.704 10.638 20.358 11.057 21.872C11.65 24.015 12.977 26.15 15.995 26.15C19.013 26.15 20.34 24.015 20.933 21.873C21.352 20.358 20.695 18.703 19.237 18.116C17.967 17.605 16.728 17.481 15.995 17.494V17.494Z" fill="url(#paint25_linear_6_2)"/>
<path d="M15.995 17.494C14.8845 17.4918 13.7839 17.703 12.753 18.116C11.295 18.704 10.638 20.358 11.057 21.872C11.65 24.015 12.977 26.15 15.995 26.15C19.013 26.15 20.34 24.015 20.933 21.873C21.352 20.358 20.695 18.703 19.237 18.116C17.967 17.605 16.728 17.481 15.995 17.494V17.494Z" fill="url(#paint26_radial_6_2)"/>
<path d="M15.995 17.494C14.8845 17.4918 13.7839 17.703 12.753 18.116C11.295 18.704 10.638 20.358 11.057 21.872C11.65 24.015 12.977 26.15 15.995 26.15C19.013 26.15 20.34 24.015 20.933 21.873C21.352 20.358 20.695 18.703 19.237 18.116C17.967 17.605 16.728 17.481 15.995 17.494V17.494Z" fill="url(#paint27_radial_6_2)"/>
<g filter="url(#filter3_f_6_2)">
<path fill-rule="evenodd" clip-rule="evenodd" d="M13.073 21.784C13.073 21.508 12.855 21.284 12.586 21.284C12.4553 21.2861 12.3308 21.3399 12.2397 21.4336C12.1486 21.5273 12.0984 21.6533 12.1 21.784C12.1 23.064 13.039 24.178 14.28 24.178C14.982 24.178 15.586 23.823 15.98 23.284C16.374 23.824 16.978 24.178 17.68 24.178C18.921 24.178 19.86 23.064 19.86 21.784C19.86 21.508 19.642 21.284 19.374 21.284C19.2432 21.2858 19.1184 21.3395 19.0271 21.4333C18.9358 21.527 18.8854 21.6531 18.887 21.784C18.887 22.594 18.307 23.178 17.679 23.178C17.051 23.178 16.472 22.594 16.472 21.784C16.472 21.508 16.254 21.284 15.985 21.284H15.975C15.8442 21.2858 15.7194 21.3395 15.6281 21.4333C15.5368 21.527 15.4864 21.6531 15.488 21.784C15.488 22.594 14.908 23.178 14.281 23.178C13.653 23.178 13.073 22.594 13.073 21.784Z" fill="#BAADCB"/>
</g>
<path d="M15.99 21.643C15.99 22.688 15.21 23.537 14.25 23.537C13.29 23.537 12.51 22.688 12.51 21.643" stroke="url(#paint28_radial_6_2)" stroke-miterlimit="10" stroke-linecap="round"/>
<path d="M15.99 21.643C15.99 22.688 15.21 23.537 14.25 23.537C13.29 23.537 12.51 22.688 12.51 21.643" stroke="url(#paint29_radial_6_2)" stroke-miterlimit="10" stroke-linecap="round"/>
<path d="M19.48 21.643C19.48 22.688 18.7 23.537 17.74 23.537C16.78 23.537 16 22.688 16 21.643" stroke="url(#paint30_radial_6_2)" stroke-miterlimit="10" stroke-linecap="round"/>
<g filter="url(#filter4_f_6_2)">
<path d="M12.51 21.643C12.552 22.164 13.044 23.225 14.12 23.3C15.463 23.393 15.932 22.33 15.979 21.643C15.953 22.195 16.557 23.378 17.823 23.378C18.91 23.378 19.422 22.195 19.479 21.643" stroke="url(#paint31_linear_6_2)" stroke-width="0.25" stroke-linecap="round" stroke-linejoin="round"/>
</g>
<g filter="url(#filter5_f_6_2)">
<path d="M14.705 18.466L16.595 18.288C17.324 18.218 17.752 18.884 17.427 19.464C17.178 19.8918 16.8565 20.2732 16.477 20.591C16.31 20.7363 16.1029 20.8276 15.883 20.853C15.683 20.873 15.466 20.823 15.252 20.706C15.252 20.706 14.602 20.367 14.107 19.777C13.68 19.268 13.977 18.535 14.705 18.466V18.466Z" fill="#AEABB5"/>
</g>
<path d="M15.108 18.117H16.882C17.565 18.117 17.905 18.842 17.552 19.406C17.2894 19.8156 16.957 20.1761 16.57 20.471C16.4066 20.6025 16.2047 20.6769 15.995 20.683C15.7853 20.6769 15.5834 20.6025 15.42 20.471C15.42 20.471 14.846 20.059 14.438 19.406C14.085 18.842 14.425 18.116 15.108 18.116V18.117Z" fill="url(#paint32_linear_6_2)"/>
<path d="M15.108 18.117H16.882C17.565 18.117 17.905 18.842 17.552 19.406C17.2894 19.8156 16.957 20.1761 16.57 20.471C16.4066 20.6025 16.2047 20.6769 15.995 20.683C15.7853 20.6769 15.5834 20.6025 15.42 20.471C15.42 20.471 14.846 20.059 14.438 19.406C14.085 18.842 14.425 18.116 15.108 18.116V18.117Z" fill="url(#paint33_linear_6_2)"/>
<path d="M15.108 18.117H16.882C17.565 18.117 17.905 18.842 17.552 19.406C17.2894 19.8156 16.957 20.1761 16.57 20.471C16.4066 20.6025 16.2047 20.6769 15.995 20.683C15.7853 20.6769 15.5834 20.6025 15.42 20.471C15.42 20.471 14.846 20.059 14.438 19.406C14.085 18.842 14.425 18.116 15.108 18.116V18.117Z" fill="url(#paint34_linear_6_2)"/>
<path d="M15.108 18.117H16.882C17.565 18.117 17.905 18.842 17.552 19.406C17.2894 19.8156 16.957 20.1761 16.57 20.471C16.4066 20.6025 16.2047 20.6769 15.995 20.683C15.7853 20.6769 15.5834 20.6025 15.42 20.471C15.42 20.471 14.846 20.059 14.438 19.406C14.085 18.842 14.425 18.116 15.108 18.116V18.117Z" fill="url(#paint35_radial_6_2)"/>
<path d="M15.108 18.117H16.882C17.565 18.117 17.905 18.842 17.552 19.406C17.2894 19.8156 16.957 20.1761 16.57 20.471C16.4066 20.6025 16.2047 20.6769 15.995 20.683C15.7853 20.6769 15.5834 20.6025 15.42 20.471C15.42 20.471 14.846 20.059 14.438 19.406C14.085 18.842 14.425 18.116 15.108 18.116V18.117Z" fill="url(#paint36_radial_6_2)"/>
<g filter="url(#filter6_f_6_2)">
<path d="M28.853 19.783C28.239 14.655 26.107 10.216 22.038 8.416C21.512 8.183 20.912 8.431 20.64 8.938C20.5228 9.16171 20.4773 9.41608 20.5097 9.66655C20.542 9.91702 20.6507 10.1515 20.821 10.338C22.972 12.743 24.357 15.403 24.501 19.699C24.554 21.28 26.134 22.455 27.597 21.854C28.429 21.512 28.96 20.676 28.853 19.783Z" fill="url(#paint37_linear_6_2)"/>
</g>
</g>
<defs>
<filter id="filter0_f_6_2" x="10.433" y="14.007" width="2.5" height="3.986" filterUnits="userSpaceOnUse" color-interpolation-filters="sRGB">
<feFlood flood-opacity="0" result="BackgroundImageFix"/>
<feBlend mode="normal" in="SourceGraphic" in2="BackgroundImageFix" result="shape"/>
<feGaussianBlur stdDeviation="0.25" result="effect1_foregroundBlur_6_2"/>
</filter>
<filter id="filter1_f_6_2" x="18.432" y="13.922" width="2.5" height="3.986" filterUnits="userSpaceOnUse" color-interpolation-filters="sRGB">
<feFlood flood-opacity="0" result="BackgroundImageFix"/>
<feBlend mode="normal" in="SourceGraphic" in2="BackgroundImageFix" result="shape"/>
<feGaussianBlur stdDeviation="0.25" result="effect1_foregroundBlur_6_2"/>
</filter>
<filter id="filter2_f_6_2" x="9.704" y="17.4546" width="11.7736" height="10.734" filterUnits="userSpaceOnUse" color-interpolation-filters="sRGB">
<feFlood flood-opacity="0" result="BackgroundImageFix"/>
<feBlend mode="normal" in="SourceGraphic" in2="BackgroundImageFix" result="shape"/>
<feGaussianBlur stdDeviation="0.375" result="effect1_foregroundBlur_6_2"/>
</filter>
<filter id="filter3_f_6_2" x="11.7" y="20.884" width="8.56004" height="3.694" filterUnits="userSpaceOnUse" color-interpolation-filters="sRGB">
<feFlood flood-opacity="0" result="BackgroundImageFix"/>
<feBlend mode="normal" in="SourceGraphic" in2="BackgroundImageFix" result="shape"/>
<feGaussianBlur stdDeviation="0.2" result="effect1_foregroundBlur_6_2"/>
</filter>
<filter id="filter4_f_6_2" x="12.135" y="21.268" width="7.71902" height="2.48501" filterUnits="userSpaceOnUse" color-interpolation-filters="sRGB">
<feFlood flood-opacity="0" result="BackgroundImageFix"/>
<feBlend mode="normal" in="SourceGraphic" in2="BackgroundImageFix" result="shape"/>
<feGaussianBlur stdDeviation="0.125" result="effect1_foregroundBlur_6_2"/>
</filter>
<filter id="filter5_f_6_2" x="13.2098" y="17.5829" width="5.02741" height="3.97438" filterUnits="userSpaceOnUse" color-interpolation-filters="sRGB">
<feFlood flood-opacity="0" result="BackgroundImageFix"/>
<feBlend mode="normal" in="SourceGraphic" in2="BackgroundImageFix" result="shape"/>
<feGaussianBlur stdDeviation="0.35" result="effect1_foregroundBlur_6_2"/>
</filter>
<filter id="filter6_f_6_2" x="16.4995" y="4.3279" width="16.3671" height="21.686" filterUnits="userSpaceOnUse" color-interpolation-filters="sRGB">
<feFlood flood-opacity="0" result="BackgroundImageFix"/>
<feBlend mode="normal" in="SourceGraphic" in2="BackgroundImageFix" result="shape"/>
<feGaussianBlur stdDeviation="2" result="effect1_foregroundBlur_6_2"/>
</filter>
<linearGradient id="paint0_linear_6_2" x1="25.142" y1="13.406" x2="25.517" y2="7.781" gradientUnits="userSpaceOnUse">
<stop stop-color="#C8C8CD"/>
<stop offset="1" stop-color="#C8C8CD" stop-opacity="0"/>
</linearGradient>
<linearGradient id="paint1_linear_6_2" x1="19.392" y1="6.281" x2="23.298" y2="6.875" gradientUnits="userSpaceOnUse">
<stop stop-color="#C8C8CD"/>
<stop offset="1" stop-color="#C8C8CD" stop-opacity="0"/>
</linearGradient>
<radialGradient id="paint2_radial_6_2" cx="0" cy="0" r="1" gradientUnits="userSpaceOnUse" gradientTransform="translate(28.517 10.938) rotate(-141.865) scale(9.05846 6.10725)">
<stop offset="0.909" stop-color="#C8C8CD" stop-opacity="0"/>
<stop offset="0.999" stop-color="#C0C0C0"/>
</radialGradient>
<radialGradient id="paint3_radial_6_2" cx="0" cy="0" r="1" gradientUnits="userSpaceOnUse" gradientTransform="translate(21.8603 1.93742) rotate(54.148) scale(11.258 7.63242)">
<stop offset="0.909" stop-color="#C8C8CD" stop-opacity="0"/>
<stop offset="0.976" stop-color="#C0C0C0"/>
</radialGradient>
<radialGradient id="paint4_radial_6_2" cx="0" cy="0" r="1" gradientUnits="userSpaceOnUse" gradientTransform="translate(28.062 6.21317) rotate(142.716) scale(3.45634 3.61664)">
<stop stop-color="white"/>
<stop offset="1" stop-color="white" stop-opacity="0"/>
</radialGradient>
<linearGradient id="paint5_linear_6_2" x1="25.423" y1="6.531" x2="23.86" y2="8.734" gradientUnits="userSpaceOnUse">
<stop stop-color="#B8B8BD"/>
<stop offset="1" stop-color="#C6C7C9"/>
</linearGradient>
<linearGradient id="paint6_linear_6_2" x1="6.829" y1="12.125" x2="6.767" y2="5.062" gradientUnits="userSpaceOnUse">
<stop stop-color="#C8C8CD"/>
<stop offset="1" stop-color="#C8C8CD" stop-opacity="0"/>
</linearGradient>
<radialGradient id="paint7_radial_6_2" cx="0" cy="0" r="1" gradientUnits="userSpaceOnUse" gradientTransform="translate(16.2042 9.06161) rotate(-175.225) scale(13.5157 8.57156)">
<stop offset="0.913" stop-color="#C8C8CD" stop-opacity="0"/>
<stop offset="0.976" stop-color="#C0C0C0"/>
</radialGradient>
<radialGradient id="paint8_radial_6_2" cx="0" cy="0" r="1" gradientUnits="userSpaceOnUse" gradientTransform="translate(9.57943 4.14) rotate(127.193) scale(3.82543 4.3788)">
<stop stop-color="white"/>
<stop offset="1" stop-color="white" stop-opacity="0"/>
</radialGradient>
<radialGradient id="paint9_radial_6_2" cx="0" cy="0" r="1" gradientUnits="userSpaceOnUse" gradientTransform="translate(4.99 8.734) rotate(-23.8343) scale(4.36774 1.85849)">
<stop stop-color="#D2D2D5"/>
<stop offset="1" stop-color="#B8B8BD"/>
</radialGradient>
<radialGradient id="paint10_radial_6_2" cx="0" cy="0" r="1" gradientUnits="userSpaceOnUse" gradientTransform="translate(6.267 9.656) rotate(-51.2098) scale(4.28991 2.79442)">
<stop offset="0.755" stop-color="#ADADB2" stop-opacity="0"/>
<stop offset="1" stop-color="#98989C"/>
</radialGradient>
<radialGradient id="paint11_radial_6_2" cx="0" cy="0" r="1" gradientUnits="userSpaceOnUse" gradientTransform="translate(16.33 7.75) rotate(90) scale(28.0625 27.4301)">
<stop stop-color="#EEEDF4"/>
<stop offset="1" stop-color="#DFDAE7"/>
</radialGradient>
<radialGradient id="paint12_radial_6_2" cx="0" cy="0" r="1" gradientUnits="userSpaceOnUse" gradientTransform="translate(15.995 39.75) rotate(-90) scale(20.0625 30.4634)">
<stop stop-color="#C4AFDD"/>
<stop offset="1" stop-color="#B6A4CC" stop-opacity="0"/>
</radialGradient>
<radialGradient id="paint13_radial_6_2" cx="0" cy="0" r="1" gradientUnits="userSpaceOnUse" gradientTransform="translate(15.995 5.978) rotate(90) scale(24.2717 27.628)">
<stop offset="0.882" stop-color="#B9A6D1" stop-opacity="0"/>
<stop offset="1" stop-color="#ADA0BD"/>
</radialGradient>
<radialGradient id="paint14_radial_6_2" cx="0" cy="0" r="1" gradientUnits="userSpaceOnUse" gradientTransform="translate(15.995 5.978) rotate(76.3782) scale(27.1607 29.631)">
<stop offset="0.811" stop-color="#9A88AF" stop-opacity="0"/>
<stop offset="1" stop-color="#9A88AF"/>
</radialGradient>
<radialGradient id="paint15_radial_6_2" cx="0" cy="0" r="1" gradientUnits="userSpaceOnUse" gradientTransform="translate(25.25 19.306) rotate(180) scale(24.4375 17.875)">
<stop offset="0.877" stop-color="#DBDADD" stop-opacity="0"/>
<stop offset="1" stop-color="#DBDADD"/>
</radialGradient>
<radialGradient id="paint16_radial_6_2" cx="0" cy="0" r="1" gradientUnits="userSpaceOnUse" gradientTransform="translate(16.392 20.688) rotate(-104.781) scale(15.9237 20.0699)">
<stop offset="0.848" stop-color="#D0D1D2" stop-opacity="0"/>
<stop offset="1" stop-color="#C9C9C9"/>
</radialGradient>
<radialGradient id="paint17_radial_6_2" cx="0" cy="0" r="1" gradientUnits="userSpaceOnUse" gradientTransform="translate(8.58 17.21) rotate(18.3229) scale(22.79 19.8884)">
<stop offset="0.848" stop-color="#D0D1D2" stop-opacity="0"/>
<stop offset="1" stop-color="#C9C9C9"/>
</radialGradient>
<linearGradient id="paint18_linear_6_2" x1="12.745" y1="15.416" x2="11.877" y2="15.416" gradientUnits="userSpaceOnUse">
<stop offset="0.225" stop-color="#594C4F"/>
<stop offset="1" stop-color="#392833"/>
</linearGradient>
<linearGradient id="paint19_linear_6_2" x1="12.979" y1="16.956" x2="12.979" y2="15.533" gradientUnits="userSpaceOnUse">
<stop stop-color="#492847"/>
<stop offset="1" stop-color="#552D52" stop-opacity="0"/>
</linearGradient>
<radialGradient id="paint20_radial_6_2" cx="0" cy="0" r="1" gradientUnits="userSpaceOnUse" gradientTransform="translate(12.156 15.838) rotate(-104.85) scale(1.74797 1.88432)">
<stop offset="0.814" stop-color="#594C4F" stop-opacity="0"/>
<stop offset="1" stop-color="#594C4F"/>
</radialGradient>
<linearGradient id="paint21_linear_6_2" x1="20.745" y1="15.416" x2="19.877" y2="15.416" gradientUnits="userSpaceOnUse">
<stop offset="0.225" stop-color="#594C4F"/>
<stop offset="1" stop-color="#392833"/>
</linearGradient>
<linearGradient id="paint22_linear_6_2" x1="20.979" y1="16.956" x2="20.979" y2="15.533" gradientUnits="userSpaceOnUse">
<stop stop-color="#492847"/>
<stop offset="1" stop-color="#552D52" stop-opacity="0"/>
</linearGradient>
<radialGradient id="paint23_radial_6_2" cx="0" cy="0" r="1" gradientUnits="userSpaceOnUse" gradientTransform="translate(20.156 15.838) rotate(-104.85) scale(1.74797 1.88432)">
<stop offset="0.814" stop-color="#594C4F" stop-opacity="0"/>
<stop offset="1" stop-color="#594C4F"/>
</radialGradient>
<linearGradient id="paint24_linear_6_2" x1="15.382" y1="23.75" x2="11.892" y2="27.875" gradientUnits="userSpaceOnUse">
<stop stop-color="#C7BED5"/>
<stop offset="1" stop-color="#B7A7D1" stop-opacity="0"/>
</linearGradient>
<linearGradient id="paint25_linear_6_2" x1="15.995" y1="17.493" x2="15.995" y2="26.15" gradientUnits="userSpaceOnUse">
<stop stop-color="white"/>
<stop offset="1" stop-color="#E9DEFA"/>
</linearGradient>
<radialGradient id="paint26_radial_6_2" cx="0" cy="0" r="1" gradientUnits="userSpaceOnUse" gradientTransform="translate(15.438 26.75) rotate(-90) scale(3.9436 10.6104)">
<stop stop-color="#D3BEF1"/>
<stop offset="1" stop-color="#DACBF0" stop-opacity="0"/>
</radialGradient>
<radialGradient id="paint27_radial_6_2" cx="0" cy="0" r="1" gradientUnits="userSpaceOnUse" gradientTransform="translate(15.995 26.963) rotate(-90) scale(9.8064 10.113)">
<stop offset="0.837" stop-color="#D8D8DC" stop-opacity="0"/>
<stop offset="0.97" stop-color="#D8D8DC"/>
</radialGradient>
<radialGradient id="paint28_radial_6_2" cx="0" cy="0" r="1" gradientUnits="userSpaceOnUse" gradientTransform="translate(14.244 22.201) rotate(90) scale(1.71875 2.18838)">
<stop offset="0.006" stop-color="#423539"/>
<stop offset="1" stop-color="#3C223C"/>
</radialGradient>
<radialGradient id="paint29_radial_6_2" cx="0" cy="0" r="1" gradientUnits="userSpaceOnUse" gradientTransform="translate(14.3587 21.1816) rotate(70.994) scale(2.97467 7.41114)">
<stop offset="0.006" stop-color="#533530"/>
<stop offset="1" stop-color="#543057"/>
</radialGradient>
<radialGradient id="paint30_radial_6_2" cx="0" cy="0" r="1" gradientUnits="userSpaceOnUse" gradientTransform="translate(17.938 22.228) rotate(96.8587) scale(1.70405 4.78132)">
<stop offset="0.006" stop-color="#533530"/>
<stop offset="1" stop-color="#543057"/>
</radialGradient>
<linearGradient id="paint31_linear_6_2" x1="12.322" y1="22.143" x2="19.838" y2="22.143" gradientUnits="userSpaceOnUse">
<stop stop-color="#5F5356"/>
<stop offset="0.289" stop-color="#5F5356" stop-opacity="0"/>
<stop offset="0.445" stop-color="#5F5356" stop-opacity="0"/>
<stop offset="0.534" stop-color="#5F5356"/>
<stop offset="1" stop-color="#5F5356" stop-opacity="0"/>
</linearGradient>
<linearGradient id="paint32_linear_6_2" x1="15.578" y1="18.431" x2="16.075" y2="20.215" gradientUnits="userSpaceOnUse">
<stop stop-color="#5F5254"/>
<stop offset="1" stop-color="#2E2127"/>
</linearGradient>
<linearGradient id="paint33_linear_6_2" x1="15.759" y1="18.79" x2="15.759" y2="17.586" gradientUnits="userSpaceOnUse">
<stop offset="0.147" stop-color="#34222C" stop-opacity="0"/>
<stop offset="0.873" stop-color="#34222C"/>
</linearGradient>
<linearGradient id="paint34_linear_6_2" x1="15.155" y1="20.809" x2="15.155" y2="18.989" gradientUnits="userSpaceOnUse">
<stop stop-color="#552D52"/>
<stop offset="1" stop-color="#552D52" stop-opacity="0"/>
</linearGradient>
<radialGradient id="paint35_radial_6_2" cx="0" cy="0" r="1" gradientUnits="userSpaceOnUse" gradientTransform="translate(13.855 19.914) rotate(-18.752) scale(4.48262 2.01281)">
<stop offset="0.828" stop-color="#5C5458" stop-opacity="0"/>
<stop offset="0.935" stop-color="#5C5458"/>
</radialGradient>
<radialGradient id="paint36_radial_6_2" cx="0" cy="0" r="1" gradientUnits="userSpaceOnUse" gradientTransform="translate(17.0934 18.7921) rotate(145.376) scale(0.79749 0.48374)">
<stop stop-color="#6A5C5E"/>
<stop offset="1" stop-color="#6A5C5E" stop-opacity="0"/>
</radialGradient>
<linearGradient id="paint37_linear_6_2" x1="28.673" y1="12.245" x2="20.458" y2="16.795" gradientUnits="userSpaceOnUse">
<stop stop-color="white"/>
<stop offset="1" stop-color="white" stop-opacity="0"/>
</linearGradient>
<clipPath id="clip0_6_2">
<rect width="32" height="32" fill="white"/>
</clipPath>
</defs>
</svg>
